<mxfile host="Electron" agent="Mozilla/5.0 (X11; Linux x86_64) AppleWebKit/537.36 (KHTML, like Gecko) draw.io/25.0.2 Chrome/128.0.6613.186 Electron/32.2.7 Safari/537.36" version="25.0.2">
  <diagram name="Page-1" id="fo8UZljiFTx69_hplENE">
    <mxGraphModel dx="1114" dy="870" grid="1" gridSize="10" guides="1" tooltips="1" connect="1" arrows="1" fold="1" page="1" pageScale="1" pageWidth="850" pageHeight="1100" math="0" shadow="0">
      <root>
        <mxCell id="0" />
        <mxCell id="1" parent="0" />
        <mxCell id="fblGe3_NJaRAITq20Qpn-1" value="User" style="shape=umlActor;verticalLabelPosition=bottom;verticalAlign=top;html=1;outlineConnect=0;fontSize=18;" vertex="1" parent="1">
          <mxGeometry x="620" y="420" width="50" height="110" as="geometry" />
        </mxCell>
        <mxCell id="fblGe3_NJaRAITq20Qpn-6" value="" style="group" vertex="1" connectable="0" parent="1">
          <mxGeometry x="80" y="360" width="340" height="210" as="geometry" />
        </mxCell>
        <mxCell id="fblGe3_NJaRAITq20Qpn-5" value="Browser" style="rounded=0;whiteSpace=wrap;html=1;verticalAlign=top;align=left;spacingLeft=8;fontSize=20;" vertex="1" parent="fblGe3_NJaRAITq20Qpn-6">
          <mxGeometry width="339.99999999999994" height="210" as="geometry" />
        </mxCell>
        <mxCell id="fblGe3_NJaRAITq20Qpn-4" value="Extension" style="rounded=0;whiteSpace=wrap;html=1;fontSize=17;" vertex="1" parent="fblGe3_NJaRAITq20Qpn-6">
          <mxGeometry x="23.448275862068964" y="50" width="293.10344827586204" height="140" as="geometry" />
        </mxCell>
        <mxCell id="fblGe3_NJaRAITq20Qpn-7" value="Backend" style="rounded=0;whiteSpace=wrap;html=1;align=left;verticalAlign=top;fontSize=16;spacingLeft=6;" vertex="1" parent="1">
          <mxGeometry x="80" y="40" width="340" height="200" as="geometry" />
        </mxCell>
        <mxCell id="fblGe3_NJaRAITq20Qpn-8" value="Application server" style="rounded=0;whiteSpace=wrap;html=1;verticalAlign=top;align=left;spacingLeft=6;fontSize=17;" vertex="1" parent="1">
          <mxGeometry x="100" y="80" width="300" height="140" as="geometry" />
        </mxCell>
        <mxCell id="fblGe3_NJaRAITq20Qpn-9" style="edgeStyle=orthogonalEdgeStyle;rounded=0;orthogonalLoop=1;jettySize=auto;html=1;exitX=0;exitY=0.5;exitDx=0;exitDy=0;entryX=0;entryY=0.5;entryDx=0;entryDy=0;" edge="1" parent="1" source="fblGe3_NJaRAITq20Qpn-4" target="fblGe3_NJaRAITq20Qpn-8">
          <mxGeometry relative="1" as="geometry">
            <Array as="points">
              <mxPoint x="40" y="480" />
              <mxPoint x="40" y="150" />
            </Array>
          </mxGeometry>
        </mxCell>
        <mxCell id="fblGe3_NJaRAITq20Qpn-10" value="Config" style="rounded=0;whiteSpace=wrap;html=1;" vertex="1" parent="1">
          <mxGeometry x="120" y="140" width="120" height="60" as="geometry" />
        </mxCell>
        <mxCell id="fblGe3_NJaRAITq20Qpn-11" value="Adapter" style="rounded=0;whiteSpace=wrap;html=1;" vertex="1" parent="1">
          <mxGeometry x="260" y="140" width="120" height="60" as="geometry" />
        </mxCell>
        <mxCell id="fblGe3_NJaRAITq20Qpn-12" value="LLM API" style="ellipse;shape=cloud;whiteSpace=wrap;html=1;" vertex="1" parent="1">
          <mxGeometry x="540" y="40" width="210" height="140" as="geometry" />
        </mxCell>
        <mxCell id="fblGe3_NJaRAITq20Qpn-15" style="edgeStyle=orthogonalEdgeStyle;rounded=0;orthogonalLoop=1;jettySize=auto;html=1;exitX=1;exitY=0.5;exitDx=0;exitDy=0;entryX=0.16;entryY=0.55;entryDx=0;entryDy=0;entryPerimeter=0;" edge="1" parent="1" source="fblGe3_NJaRAITq20Qpn-11" target="fblGe3_NJaRAITq20Qpn-12">
          <mxGeometry relative="1" as="geometry">
            <Array as="points">
              <mxPoint x="480" y="170" />
              <mxPoint x="480" y="117" />
            </Array>
          </mxGeometry>
        </mxCell>
        <mxCell id="fblGe3_NJaRAITq20Qpn-18" style="edgeStyle=orthogonalEdgeStyle;rounded=0;orthogonalLoop=1;jettySize=auto;html=1;exitX=0.5;exitY=0.5;exitDx=0;exitDy=0;exitPerimeter=0;entryX=0.993;entryY=0.548;entryDx=0;entryDy=0;entryPerimeter=0;" edge="1" parent="1" source="fblGe3_NJaRAITq20Qpn-1" target="fblGe3_NJaRAITq20Qpn-5">
          <mxGeometry relative="1" as="geometry" />
        </mxCell>
      </root>
    </mxGraphModel>
  </diagram>
</mxfile>
